<?xml version="1.0" encoding="utf-8" standalone="no"?>
<!DOCTYPE svg PUBLIC "-//W3C//DTD SVG 1.1//EN"
  "http://www.w3.org/Graphics/SVG/1.1/DTD/svg11.dtd">
<svg xmlns:xlink="http://www.w3.org/1999/xlink" width="245.312465pt" height="118.395732pt" viewBox="0 0 245.312465 118.395732" xmlns="http://www.w3.org/2000/svg" version="1.1">
 <metadata>
  <rdf:RDF xmlns:dc="http://purl.org/dc/elements/1.1/" xmlns:cc="http://creativecommons.org/ns#" xmlns:rdf="http://www.w3.org/1999/02/22-rdf-syntax-ns#">
   <cc:Work>
    <dc:type rdf:resource="http://purl.org/dc/dcmitype/StillImage"/>
    <dc:date>2026-02-21T23:23:40.221524</dc:date>
    <dc:format>image/svg+xml</dc:format>
    <dc:creator>
     <cc:Agent>
      <dc:title>Matplotlib v3.10.8, https://matplotlib.org/</dc:title>
     </cc:Agent>
    </dc:creator>
   </cc:Work>
  </rdf:RDF>
 </metadata>
 <defs>
  <style type="text/css">*{stroke-linejoin: round; stroke-linecap: butt}</style>
 </defs>
 <g id="figure_1">
  <g id="patch_1">
   <path d="M 0 118.395732 
L 245.312465 118.395732 
L 245.312465 0 
L 0 0 
z
" style="fill: #ffffff"/>
  </g>
  <g id="axes_1">
   <g id="patch_2">
    <path d="M 41.73625 81.304482 
L 238.112465 81.304482 
L 238.112465 7.2 
L 41.73625 7.2 
z
" style="fill: #ffffff"/>
   </g>
   <g id="matplotlib.axis_1">
    <g id="xtick_1">
     <g id="line2d_1">
      <path d="M 51.017638 81.304482 
L 51.017638 7.2 
" clip-path="url(#pcfa9c0cfe7)" style="fill: none; stroke: #cccccc; stroke-width: 0.8; stroke-linecap: round"/>
     </g>
     <g id="text_1">
      <!-- −4 -->
      <g style="fill: #262626" transform="translate(45.316857 96.762295) scale(0.1 -0.1)">
       <defs>
        <path id="ArialMT-2212" d="M 3381 1997 
L 356 1997 
L 356 2522 
L 3381 2522 
L 3381 1997 
z
" transform="scale(0.015625)"/>
        <path id="ArialMT-34" d="M 2069 0 
L 2069 1097 
L 81 1097 
L 81 1613 
L 2172 4581 
L 2631 4581 
L 2631 1613 
L 3250 1613 
L 3250 1097 
L 2631 1097 
L 2631 0 
L 2069 0 
z
M 2069 1613 
L 2069 3678 
L 634 1613 
L 2069 1613 
z
" transform="scale(0.015625)"/>
       </defs>
       <use xlink:href="#ArialMT-2212"/>
       <use xlink:href="#ArialMT-34" transform="translate(58.398438 0)"/>
      </g>
     </g>
    </g>
    <g id="xtick_2">
     <g id="line2d_2">
      <path d="M 95.454687 81.304482 
L 95.454687 7.2 
" clip-path="url(#pcfa9c0cfe7)" style="fill: none; stroke: #cccccc; stroke-width: 0.8; stroke-linecap: round"/>
     </g>
     <g id="text_2">
      <!-- −2 -->
      <g style="fill: #262626" transform="translate(89.753906 96.762295) scale(0.1 -0.1)">
       <defs>
        <path id="ArialMT-32" d="M 3222 541 
L 3222 0 
L 194 0 
Q 188 203 259 391 
Q 375 700 629 1000 
Q 884 1300 1366 1694 
Q 2113 2306 2375 2664 
Q 2638 3022 2638 3341 
Q 2638 3675 2398 3904 
Q 2159 4134 1775 4134 
Q 1369 4134 1125 3890 
Q 881 3647 878 3216 
L 300 3275 
Q 359 3922 746 4261 
Q 1134 4600 1788 4600 
Q 2447 4600 2831 4234 
Q 3216 3869 3216 3328 
Q 3216 3053 3103 2787 
Q 2991 2522 2730 2228 
Q 2469 1934 1863 1422 
Q 1356 997 1212 845 
Q 1069 694 975 541 
L 3222 541 
z
" transform="scale(0.015625)"/>
       </defs>
       <use xlink:href="#ArialMT-2212"/>
       <use xlink:href="#ArialMT-32" transform="translate(58.398438 0)"/>
      </g>
     </g>
    </g>
    <g id="xtick_3">
     <g id="line2d_3">
      <path d="M 139.891736 81.304482 
L 139.891736 7.2 
" clip-path="url(#pcfa9c0cfe7)" style="fill: none; stroke: #cccccc; stroke-width: 0.8; stroke-linecap: round"/>
     </g>
     <g id="text_3">
      <!-- 0 -->
      <g style="fill: #262626" transform="translate(137.111268 96.762295) scale(0.1 -0.1)">
       <defs>
        <path id="ArialMT-30" d="M 266 2259 
Q 266 3072 433 3567 
Q 600 4063 929 4331 
Q 1259 4600 1759 4600 
Q 2128 4600 2406 4451 
Q 2684 4303 2865 4023 
Q 3047 3744 3150 3342 
Q 3253 2941 3253 2259 
Q 3253 1453 3087 958 
Q 2922 463 2592 192 
Q 2263 -78 1759 -78 
Q 1097 -78 719 397 
Q 266 969 266 2259 
z
M 844 2259 
Q 844 1131 1108 757 
Q 1372 384 1759 384 
Q 2147 384 2411 759 
Q 2675 1134 2675 2259 
Q 2675 3391 2411 3762 
Q 2147 4134 1753 4134 
Q 1366 4134 1134 3806 
Q 844 3388 844 2259 
z
" transform="scale(0.015625)"/>
       </defs>
       <use xlink:href="#ArialMT-30"/>
      </g>
     </g>
    </g>
    <g id="xtick_4">
     <g id="line2d_4">
      <path d="M 184.328786 81.304482 
L 184.328786 7.2 
" clip-path="url(#pcfa9c0cfe7)" style="fill: none; stroke: #cccccc; stroke-width: 0.8; stroke-linecap: round"/>
     </g>
     <g id="text_4">
      <!-- 2 -->
      <g style="fill: #262626" transform="translate(181.548317 96.762295) scale(0.1 -0.1)">
       <use xlink:href="#ArialMT-32"/>
      </g>
     </g>
    </g>
    <g id="xtick_5">
     <g id="line2d_5">
      <path d="M 228.765835 81.304482 
L 228.765835 7.2 
" clip-path="url(#pcfa9c0cfe7)" style="fill: none; stroke: #cccccc; stroke-width: 0.8; stroke-linecap: round"/>
     </g>
     <g id="text_5">
      <!-- 4 -->
      <g style="fill: #262626" transform="translate(225.985366 96.762295) scale(0.1 -0.1)">
       <use xlink:href="#ArialMT-34"/>
      </g>
     </g>
    </g>
    <g id="text_6">
     <!-- Azimuth Error (rad) -->
     <g style="fill: #262626" transform="translate(101.670139 109.301514) scale(0.09 -0.09)">
      <defs>
       <path id="ArialMT-41" d="M -9 0 
L 1750 4581 
L 2403 4581 
L 4278 0 
L 3588 0 
L 3053 1388 
L 1138 1388 
L 634 0 
L -9 0 
z
M 1313 1881 
L 2866 1881 
L 2388 3150 
Q 2169 3728 2063 4100 
Q 1975 3659 1816 3225 
L 1313 1881 
z
" transform="scale(0.015625)"/>
       <path id="ArialMT-7a" d="M 125 0 
L 125 456 
L 2238 2881 
Q 1878 2863 1603 2863 
L 250 2863 
L 250 3319 
L 2963 3319 
L 2963 2947 
L 1166 841 
L 819 456 
Q 1197 484 1528 484 
L 3063 484 
L 3063 0 
L 125 0 
z
" transform="scale(0.015625)"/>
       <path id="ArialMT-69" d="M 425 3934 
L 425 4581 
L 988 4581 
L 988 3934 
L 425 3934 
z
M 425 0 
L 425 3319 
L 988 3319 
L 988 0 
L 425 0 
z
" transform="scale(0.015625)"/>
       <path id="ArialMT-6d" d="M 422 0 
L 422 3319 
L 925 3319 
L 925 2853 
Q 1081 3097 1340 3245 
Q 1600 3394 1931 3394 
Q 2300 3394 2536 3241 
Q 2772 3088 2869 2813 
Q 3263 3394 3894 3394 
Q 4388 3394 4653 3120 
Q 4919 2847 4919 2278 
L 4919 0 
L 4359 0 
L 4359 2091 
Q 4359 2428 4304 2576 
Q 4250 2725 4106 2815 
Q 3963 2906 3769 2906 
Q 3419 2906 3187 2673 
Q 2956 2441 2956 1928 
L 2956 0 
L 2394 0 
L 2394 2156 
Q 2394 2531 2256 2718 
Q 2119 2906 1806 2906 
Q 1569 2906 1367 2781 
Q 1166 2656 1075 2415 
Q 984 2175 984 1722 
L 984 0 
L 422 0 
z
" transform="scale(0.015625)"/>
       <path id="ArialMT-75" d="M 2597 0 
L 2597 488 
Q 2209 -75 1544 -75 
Q 1250 -75 995 37 
Q 741 150 617 320 
Q 494 491 444 738 
Q 409 903 409 1263 
L 409 3319 
L 972 3319 
L 972 1478 
Q 972 1038 1006 884 
Q 1059 663 1231 536 
Q 1403 409 1656 409 
Q 1909 409 2131 539 
Q 2353 669 2445 892 
Q 2538 1116 2538 1541 
L 2538 3319 
L 3100 3319 
L 3100 0 
L 2597 0 
z
" transform="scale(0.015625)"/>
       <path id="ArialMT-74" d="M 1650 503 
L 1731 6 
Q 1494 -44 1306 -44 
Q 1000 -44 831 53 
Q 663 150 594 308 
Q 525 466 525 972 
L 525 2881 
L 113 2881 
L 113 3319 
L 525 3319 
L 525 4141 
L 1084 4478 
L 1084 3319 
L 1650 3319 
L 1650 2881 
L 1084 2881 
L 1084 941 
Q 1084 700 1114 631 
Q 1144 563 1211 522 
Q 1278 481 1403 481 
Q 1497 481 1650 503 
z
" transform="scale(0.015625)"/>
       <path id="ArialMT-68" d="M 422 0 
L 422 4581 
L 984 4581 
L 984 2938 
Q 1378 3394 1978 3394 
Q 2347 3394 2619 3248 
Q 2891 3103 3008 2847 
Q 3125 2591 3125 2103 
L 3125 0 
L 2563 0 
L 2563 2103 
Q 2563 2525 2380 2717 
Q 2197 2909 1863 2909 
Q 1613 2909 1392 2779 
Q 1172 2650 1078 2428 
Q 984 2206 984 1816 
L 984 0 
L 422 0 
z
" transform="scale(0.015625)"/>
       <path id="ArialMT-20" transform="scale(0.015625)"/>
       <path id="ArialMT-45" d="M 506 0 
L 506 4581 
L 3819 4581 
L 3819 4041 
L 1113 4041 
L 1113 2638 
L 3647 2638 
L 3647 2100 
L 1113 2100 
L 1113 541 
L 3925 541 
L 3925 0 
L 506 0 
z
" transform="scale(0.015625)"/>
       <path id="ArialMT-72" d="M 416 0 
L 416 3319 
L 922 3319 
L 922 2816 
Q 1116 3169 1280 3281 
Q 1444 3394 1641 3394 
Q 1925 3394 2219 3213 
L 2025 2691 
Q 1819 2813 1613 2813 
Q 1428 2813 1281 2702 
Q 1134 2591 1072 2394 
Q 978 2094 978 1738 
L 978 0 
L 416 0 
z
" transform="scale(0.015625)"/>
       <path id="ArialMT-6f" d="M 213 1659 
Q 213 2581 725 3025 
Q 1153 3394 1769 3394 
Q 2453 3394 2887 2945 
Q 3322 2497 3322 1706 
Q 3322 1066 3130 698 
Q 2938 331 2570 128 
Q 2203 -75 1769 -75 
Q 1072 -75 642 372 
Q 213 819 213 1659 
z
M 791 1659 
Q 791 1022 1069 705 
Q 1347 388 1769 388 
Q 2188 388 2466 706 
Q 2744 1025 2744 1678 
Q 2744 2294 2464 2611 
Q 2184 2928 1769 2928 
Q 1347 2928 1069 2612 
Q 791 2297 791 1659 
z
" transform="scale(0.015625)"/>
       <path id="ArialMT-28" d="M 1497 -1347 
Q 1031 -759 709 28 
Q 388 816 388 1659 
Q 388 2403 628 3084 
Q 909 3875 1497 4659 
L 1900 4659 
Q 1522 4009 1400 3731 
Q 1209 3300 1100 2831 
Q 966 2247 966 1656 
Q 966 153 1900 -1347 
L 1497 -1347 
z
" transform="scale(0.015625)"/>
       <path id="ArialMT-61" d="M 2588 409 
Q 2275 144 1986 34 
Q 1697 -75 1366 -75 
Q 819 -75 525 192 
Q 231 459 231 875 
Q 231 1119 342 1320 
Q 453 1522 633 1644 
Q 813 1766 1038 1828 
Q 1203 1872 1538 1913 
Q 2219 1994 2541 2106 
Q 2544 2222 2544 2253 
Q 2544 2597 2384 2738 
Q 2169 2928 1744 2928 
Q 1347 2928 1158 2789 
Q 969 2650 878 2297 
L 328 2372 
Q 403 2725 575 2942 
Q 747 3159 1072 3276 
Q 1397 3394 1825 3394 
Q 2250 3394 2515 3294 
Q 2781 3194 2906 3042 
Q 3031 2891 3081 2659 
Q 3109 2516 3109 2141 
L 3109 1391 
Q 3109 606 3145 398 
Q 3181 191 3288 0 
L 2700 0 
Q 2613 175 2588 409 
z
M 2541 1666 
Q 2234 1541 1622 1453 
Q 1275 1403 1131 1340 
Q 988 1278 909 1158 
Q 831 1038 831 891 
Q 831 666 1001 516 
Q 1172 366 1500 366 
Q 1825 366 2078 508 
Q 2331 650 2450 897 
Q 2541 1088 2541 1459 
L 2541 1666 
z
" transform="scale(0.015625)"/>
       <path id="ArialMT-64" d="M 2575 0 
L 2575 419 
Q 2259 -75 1647 -75 
Q 1250 -75 917 144 
Q 584 363 401 755 
Q 219 1147 219 1656 
Q 219 2153 384 2558 
Q 550 2963 881 3178 
Q 1213 3394 1622 3394 
Q 1922 3394 2156 3267 
Q 2391 3141 2538 2938 
L 2538 4581 
L 3097 4581 
L 3097 0 
L 2575 0 
z
M 797 1656 
Q 797 1019 1065 703 
Q 1334 388 1700 388 
Q 2069 388 2326 689 
Q 2584 991 2584 1609 
Q 2584 2291 2321 2609 
Q 2059 2928 1675 2928 
Q 1300 2928 1048 2622 
Q 797 2316 797 1656 
z
" transform="scale(0.015625)"/>
       <path id="ArialMT-29" d="M 791 -1347 
L 388 -1347 
Q 1322 153 1322 1656 
Q 1322 2244 1188 2822 
Q 1081 3291 891 3722 
Q 769 4003 388 4659 
L 791 4659 
Q 1378 3875 1659 3084 
Q 1900 2403 1900 1659 
Q 1900 816 1576 28 
Q 1253 -759 791 -1347 
z
" transform="scale(0.015625)"/>
      </defs>
      <use xlink:href="#ArialMT-41"/>
      <use xlink:href="#ArialMT-7a" transform="translate(66.699219 0)"/>
      <use xlink:href="#ArialMT-69" transform="translate(116.699219 0)"/>
      <use xlink:href="#ArialMT-6d" transform="translate(138.916016 0)"/>
      <use xlink:href="#ArialMT-75" transform="translate(222.216797 0)"/>
      <use xlink:href="#ArialMT-74" transform="translate(277.832031 0)"/>
      <use xlink:href="#ArialMT-68" transform="translate(305.615234 0)"/>
      <use xlink:href="#ArialMT-20" transform="translate(361.230469 0)"/>
      <use xlink:href="#ArialMT-45" transform="translate(389.013672 0)"/>
      <use xlink:href="#ArialMT-72" transform="translate(455.712891 0)"/>
      <use xlink:href="#ArialMT-72" transform="translate(489.013672 0)"/>
      <use xlink:href="#ArialMT-6f" transform="translate(522.314453 0)"/>
      <use xlink:href="#ArialMT-72" transform="translate(577.929688 0)"/>
      <use xlink:href="#ArialMT-20" transform="translate(611.230469 0)"/>
      <use xlink:href="#ArialMT-28" transform="translate(639.013672 0)"/>
      <use xlink:href="#ArialMT-72" transform="translate(672.314453 0)"/>
      <use xlink:href="#ArialMT-61" transform="translate(705.615234 0)"/>
      <use xlink:href="#ArialMT-64" transform="translate(761.230469 0)"/>
      <use xlink:href="#ArialMT-29" transform="translate(816.845703 0)"/>
     </g>
    </g>
   </g>
   <g id="matplotlib.axis_2">
    <g id="ytick_1">
     <g id="line2d_6">
      <path d="M 41.73625 81.304482 
L 238.112465 81.304482 
" clip-path="url(#pcfa9c0cfe7)" style="fill: none; stroke: #cccccc; stroke-width: 0.8; stroke-linecap: round"/>
     </g>
     <g id="text_7">
      <!-- 0.0 -->
      <g style="fill: #262626" transform="translate(19.53625 84.883389) scale(0.1 -0.1)">
       <defs>
        <path id="ArialMT-2e" d="M 581 0 
L 581 641 
L 1222 641 
L 1222 0 
L 581 0 
z
" transform="scale(0.015625)"/>
       </defs>
       <use xlink:href="#ArialMT-30"/>
       <use xlink:href="#ArialMT-2e" transform="translate(55.615234 0)"/>
       <use xlink:href="#ArialMT-30" transform="translate(83.398438 0)"/>
      </g>
     </g>
    </g>
    <g id="ytick_2">
     <g id="line2d_7">
      <path d="M 41.73625 38.867164 
L 238.112465 38.867164 
" clip-path="url(#pcfa9c0cfe7)" style="fill: none; stroke: #cccccc; stroke-width: 0.8; stroke-linecap: round"/>
     </g>
     <g id="text_8">
      <!-- 0.5 -->
      <g style="fill: #262626" transform="translate(19.53625 42.44607) scale(0.1 -0.1)">
       <defs>
        <path id="ArialMT-35" d="M 266 1200 
L 856 1250 
Q 922 819 1161 601 
Q 1400 384 1738 384 
Q 2144 384 2425 690 
Q 2706 997 2706 1503 
Q 2706 1984 2436 2262 
Q 2166 2541 1728 2541 
Q 1456 2541 1237 2417 
Q 1019 2294 894 2097 
L 366 2166 
L 809 4519 
L 3088 4519 
L 3088 3981 
L 1259 3981 
L 1013 2750 
Q 1425 3038 1878 3038 
Q 2478 3038 2890 2622 
Q 3303 2206 3303 1553 
Q 3303 931 2941 478 
Q 2500 -78 1738 -78 
Q 1113 -78 717 272 
Q 322 622 266 1200 
z
" transform="scale(0.015625)"/>
       </defs>
       <use xlink:href="#ArialMT-30"/>
       <use xlink:href="#ArialMT-2e" transform="translate(55.615234 0)"/>
       <use xlink:href="#ArialMT-35" transform="translate(83.398438 0)"/>
      </g>
     </g>
    </g>
    <g id="text_9">
     <!-- Density -->
     <g style="fill: #262626" transform="translate(13.642031 59.256929) rotate(-90) scale(0.09 -0.09)">
      <defs>
       <path id="ArialMT-44" d="M 494 0 
L 494 4581 
L 2072 4581 
Q 2606 4581 2888 4516 
Q 3281 4425 3559 4188 
Q 3922 3881 4101 3404 
Q 4281 2928 4281 2316 
Q 4281 1794 4159 1391 
Q 4038 988 3847 723 
Q 3656 459 3429 307 
Q 3203 156 2883 78 
Q 2563 0 2147 0 
L 494 0 
z
M 1100 541 
L 2078 541 
Q 2531 541 2789 625 
Q 3047 709 3200 863 
Q 3416 1078 3536 1442 
Q 3656 1806 3656 2325 
Q 3656 3044 3420 3430 
Q 3184 3816 2847 3947 
Q 2603 4041 2063 4041 
L 1100 4041 
L 1100 541 
z
" transform="scale(0.015625)"/>
       <path id="ArialMT-65" d="M 2694 1069 
L 3275 997 
Q 3138 488 2766 206 
Q 2394 -75 1816 -75 
Q 1088 -75 661 373 
Q 234 822 234 1631 
Q 234 2469 665 2931 
Q 1097 3394 1784 3394 
Q 2450 3394 2872 2941 
Q 3294 2488 3294 1666 
Q 3294 1616 3291 1516 
L 816 1516 
Q 847 969 1125 678 
Q 1403 388 1819 388 
Q 2128 388 2347 550 
Q 2566 713 2694 1069 
z
M 847 1978 
L 2700 1978 
Q 2663 2397 2488 2606 
Q 2219 2931 1791 2931 
Q 1403 2931 1139 2672 
Q 875 2413 847 1978 
z
" transform="scale(0.015625)"/>
       <path id="ArialMT-6e" d="M 422 0 
L 422 3319 
L 928 3319 
L 928 2847 
Q 1294 3394 1984 3394 
Q 2284 3394 2536 3286 
Q 2788 3178 2913 3003 
Q 3038 2828 3088 2588 
Q 3119 2431 3119 2041 
L 3119 0 
L 2556 0 
L 2556 2019 
Q 2556 2363 2490 2533 
Q 2425 2703 2258 2804 
Q 2091 2906 1866 2906 
Q 1506 2906 1245 2678 
Q 984 2450 984 1813 
L 984 0 
L 422 0 
z
" transform="scale(0.015625)"/>
       <path id="ArialMT-73" d="M 197 991 
L 753 1078 
Q 800 744 1014 566 
Q 1228 388 1613 388 
Q 2000 388 2187 545 
Q 2375 703 2375 916 
Q 2375 1106 2209 1216 
Q 2094 1291 1634 1406 
Q 1016 1563 777 1677 
Q 538 1791 414 1992 
Q 291 2194 291 2438 
Q 291 2659 392 2848 
Q 494 3038 669 3163 
Q 800 3259 1026 3326 
Q 1253 3394 1513 3394 
Q 1903 3394 2198 3281 
Q 2494 3169 2634 2976 
Q 2775 2784 2828 2463 
L 2278 2388 
Q 2241 2644 2061 2787 
Q 1881 2931 1553 2931 
Q 1166 2931 1000 2803 
Q 834 2675 834 2503 
Q 834 2394 903 2306 
Q 972 2216 1119 2156 
Q 1203 2125 1616 2013 
Q 2213 1853 2448 1751 
Q 2684 1650 2818 1456 
Q 2953 1263 2953 975 
Q 2953 694 2789 445 
Q 2625 197 2315 61 
Q 2006 -75 1616 -75 
Q 969 -75 630 194 
Q 291 463 197 991 
z
" transform="scale(0.015625)"/>
       <path id="ArialMT-79" d="M 397 -1278 
L 334 -750 
Q 519 -800 656 -800 
Q 844 -800 956 -737 
Q 1069 -675 1141 -563 
Q 1194 -478 1313 -144 
Q 1328 -97 1363 -6 
L 103 3319 
L 709 3319 
L 1400 1397 
Q 1534 1031 1641 628 
Q 1738 1016 1872 1384 
L 2581 3319 
L 3144 3319 
L 1881 -56 
Q 1678 -603 1566 -809 
Q 1416 -1088 1222 -1217 
Q 1028 -1347 759 -1347 
Q 597 -1347 397 -1278 
z
" transform="scale(0.015625)"/>
      </defs>
      <use xlink:href="#ArialMT-44"/>
      <use xlink:href="#ArialMT-65" transform="translate(72.216797 0)"/>
      <use xlink:href="#ArialMT-6e" transform="translate(127.832031 0)"/>
      <use xlink:href="#ArialMT-73" transform="translate(183.447266 0)"/>
      <use xlink:href="#ArialMT-69" transform="translate(233.447266 0)"/>
      <use xlink:href="#ArialMT-74" transform="translate(255.664062 0)"/>
      <use xlink:href="#ArialMT-79" transform="translate(283.447266 0)"/>
     </g>
    </g>
   </g>
   <g id="patch_3">
    <path d="M 75.383008 81.304482 
L 77.964663 81.304482 
L 77.964663 77.775701 
L 75.383008 77.775701 
z
" clip-path="url(#pcfa9c0cfe7)" style="fill: #0072b2; opacity: 0.7; stroke: #ffffff; stroke-width: 0.8; stroke-linejoin: miter"/>
   </g>
   <g id="patch_4">
    <path d="M 77.964663 81.304482 
L 80.546317 81.304482 
L 80.546317 81.304482 
L 77.964663 81.304482 
z
" clip-path="url(#pcfa9c0cfe7)" style="fill: #0072b2; opacity: 0.7; stroke: #ffffff; stroke-width: 0.8; stroke-linejoin: miter"/>
   </g>
   <g id="patch_5">
    <path d="M 80.546317 81.304482 
L 83.127971 81.304482 
L 83.127971 81.304482 
L 80.546317 81.304482 
z
" clip-path="url(#pcfa9c0cfe7)" style="fill: #0072b2; opacity: 0.7; stroke: #ffffff; stroke-width: 0.8; stroke-linejoin: miter"/>
   </g>
   <g id="patch_6">
    <path d="M 83.127971 81.304482 
L 85.709625 81.304482 
L 85.709625 81.304482 
L 83.127971 81.304482 
z
" clip-path="url(#pcfa9c0cfe7)" style="fill: #0072b2; opacity: 0.7; stroke: #ffffff; stroke-width: 0.8; stroke-linejoin: miter"/>
   </g>
   <g id="patch_7">
    <path d="M 85.709625 81.304482 
L 88.291279 81.304482 
L 88.291279 81.304482 
L 85.709625 81.304482 
z
" clip-path="url(#pcfa9c0cfe7)" style="fill: #0072b2; opacity: 0.7; stroke: #ffffff; stroke-width: 0.8; stroke-linejoin: miter"/>
   </g>
   <g id="patch_8">
    <path d="M 88.291279 81.304482 
L 90.872933 81.304482 
L 90.872933 77.775701 
L 88.291279 77.775701 
z
" clip-path="url(#pcfa9c0cfe7)" style="fill: #0072b2; opacity: 0.7; stroke: #ffffff; stroke-width: 0.8; stroke-linejoin: miter"/>
   </g>
   <g id="patch_9">
    <path d="M 90.872933 81.304482 
L 93.454588 81.304482 
L 93.454588 81.304482 
L 90.872933 81.304482 
z
" clip-path="url(#pcfa9c0cfe7)" style="fill: #0072b2; opacity: 0.7; stroke: #ffffff; stroke-width: 0.8; stroke-linejoin: miter"/>
   </g>
   <g id="patch_10">
    <path d="M 93.454588 81.304482 
L 96.036242 81.304482 
L 96.036242 81.304482 
L 93.454588 81.304482 
z
" clip-path="url(#pcfa9c0cfe7)" style="fill: #0072b2; opacity: 0.7; stroke: #ffffff; stroke-width: 0.8; stroke-linejoin: miter"/>
   </g>
   <g id="patch_11">
    <path d="M 96.036242 81.304482 
L 98.617893 81.304482 
L 98.617893 81.304482 
L 96.036242 81.304482 
z
" clip-path="url(#pcfa9c0cfe7)" style="fill: #0072b2; opacity: 0.7; stroke: #ffffff; stroke-width: 0.8; stroke-linejoin: miter"/>
   </g>
   <g id="patch_12">
    <path d="M 98.617893 81.304482 
L 101.199547 81.304482 
L 101.199547 74.24692 
L 98.617893 74.24692 
z
" clip-path="url(#pcfa9c0cfe7)" style="fill: #0072b2; opacity: 0.7; stroke: #ffffff; stroke-width: 0.8; stroke-linejoin: miter"/>
   </g>
   <g id="patch_13">
    <path d="M 101.199547 81.304482 
L 103.781202 81.304482 
L 103.781202 63.660576 
L 101.199547 63.660576 
z
" clip-path="url(#pcfa9c0cfe7)" style="fill: #0072b2; opacity: 0.7; stroke: #ffffff; stroke-width: 0.8; stroke-linejoin: miter"/>
   </g>
   <g id="patch_14">
    <path d="M 103.781202 81.304482 
L 106.362856 81.304482 
L 106.362856 74.24692 
L 103.781202 74.24692 
z
" clip-path="url(#pcfa9c0cfe7)" style="fill: #0072b2; opacity: 0.7; stroke: #ffffff; stroke-width: 0.8; stroke-linejoin: miter"/>
   </g>
   <g id="patch_15">
    <path d="M 106.362856 81.304482 
L 108.94451 81.304482 
L 108.94451 60.131795 
L 106.362856 60.131795 
z
" clip-path="url(#pcfa9c0cfe7)" style="fill: #0072b2; opacity: 0.7; stroke: #ffffff; stroke-width: 0.8; stroke-linejoin: miter"/>
   </g>
   <g id="patch_16">
    <path d="M 108.94451 81.304482 
L 111.526164 81.304482 
L 111.526164 38.959107 
L 108.94451 38.959107 
z
" clip-path="url(#pcfa9c0cfe7)" style="fill: #0072b2; opacity: 0.7; stroke: #ffffff; stroke-width: 0.8; stroke-linejoin: miter"/>
   </g>
   <g id="patch_17">
    <path d="M 111.526164 81.304482 
L 114.107818 81.304482 
L 114.107818 49.545451 
L 111.526164 49.545451 
z
" clip-path="url(#pcfa9c0cfe7)" style="fill: #0072b2; opacity: 0.7; stroke: #ffffff; stroke-width: 0.8; stroke-linejoin: miter"/>
   </g>
   <g id="patch_18">
    <path d="M 114.107818 81.304482 
L 116.689472 81.304482 
L 116.689472 35.430326 
L 114.107818 35.430326 
z
" clip-path="url(#pcfa9c0cfe7)" style="fill: #0072b2; opacity: 0.7; stroke: #ffffff; stroke-width: 0.8; stroke-linejoin: miter"/>
   </g>
   <g id="patch_19">
    <path d="M 116.689472 81.304482 
L 119.271127 81.304482 
L 119.271127 42.487889 
L 116.689472 42.487889 
z
" clip-path="url(#pcfa9c0cfe7)" style="fill: #0072b2; opacity: 0.7; stroke: #ffffff; stroke-width: 0.8; stroke-linejoin: miter"/>
   </g>
   <g id="patch_20">
    <path d="M 119.271127 81.304482 
L 121.852778 81.304482 
L 121.852778 10.728785 
L 119.271127 10.728785 
z
" clip-path="url(#pcfa9c0cfe7)" style="fill: #0072b2; opacity: 0.7; stroke: #ffffff; stroke-width: 0.8; stroke-linejoin: miter"/>
   </g>
   <g id="patch_21">
    <path d="M 121.852778 81.304482 
L 124.434432 81.304482 
L 124.434432 31.901545 
L 121.852778 31.901545 
z
" clip-path="url(#pcfa9c0cfe7)" style="fill: #0072b2; opacity: 0.7; stroke: #ffffff; stroke-width: 0.8; stroke-linejoin: miter"/>
   </g>
   <g id="patch_22">
    <path d="M 124.434432 81.304482 
L 127.016086 81.304482 
L 127.016086 35.430326 
L 124.434432 35.430326 
z
" clip-path="url(#pcfa9c0cfe7)" style="fill: #0072b2; opacity: 0.7; stroke: #ffffff; stroke-width: 0.8; stroke-linejoin: miter"/>
   </g>
   <g id="patch_23">
    <path d="M 127.016086 81.304482 
L 129.597741 81.304482 
L 129.597741 67.189357 
L 127.016086 67.189357 
z
" clip-path="url(#pcfa9c0cfe7)" style="fill: #0072b2; opacity: 0.7; stroke: #ffffff; stroke-width: 0.8; stroke-linejoin: miter"/>
   </g>
   <g id="patch_24">
    <path d="M 129.597741 81.304482 
L 132.179395 81.304482 
L 132.179395 53.074232 
L 129.597741 53.074232 
z
" clip-path="url(#pcfa9c0cfe7)" style="fill: #0072b2; opacity: 0.7; stroke: #ffffff; stroke-width: 0.8; stroke-linejoin: miter"/>
   </g>
   <g id="patch_25">
    <path d="M 132.179395 81.304482 
L 134.761049 81.304482 
L 134.761049 49.545451 
L 132.179395 49.545451 
z
" clip-path="url(#pcfa9c0cfe7)" style="fill: #0072b2; opacity: 0.7; stroke: #ffffff; stroke-width: 0.8; stroke-linejoin: miter"/>
   </g>
   <g id="patch_26">
    <path d="M 134.761049 81.304482 
L 137.342703 81.304482 
L 137.342703 70.718139 
L 134.761049 70.718139 
z
" clip-path="url(#pcfa9c0cfe7)" style="fill: #0072b2; opacity: 0.7; stroke: #ffffff; stroke-width: 0.8; stroke-linejoin: miter"/>
   </g>
   <g id="patch_27">
    <path d="M 137.342703 81.304482 
L 139.924357 81.304482 
L 139.924357 74.24692 
L 137.342703 74.24692 
z
" clip-path="url(#pcfa9c0cfe7)" style="fill: #0072b2; opacity: 0.7; stroke: #ffffff; stroke-width: 0.8; stroke-linejoin: miter"/>
   </g>
   <g id="patch_28">
    <path d="M 139.924357 81.304482 
L 142.506011 81.304482 
L 142.506011 74.24692 
L 139.924357 74.24692 
z
" clip-path="url(#pcfa9c0cfe7)" style="fill: #0072b2; opacity: 0.7; stroke: #ffffff; stroke-width: 0.8; stroke-linejoin: miter"/>
   </g>
   <g id="patch_29">
    <path d="M 142.506011 81.304482 
L 145.087666 81.304482 
L 145.087666 63.660576 
L 142.506011 63.660576 
z
" clip-path="url(#pcfa9c0cfe7)" style="fill: #0072b2; opacity: 0.7; stroke: #ffffff; stroke-width: 0.8; stroke-linejoin: miter"/>
   </g>
   <g id="patch_30">
    <path d="M 145.087666 81.304482 
L 147.66932 81.304482 
L 147.66932 56.603014 
L 145.087666 56.603014 
z
" clip-path="url(#pcfa9c0cfe7)" style="fill: #0072b2; opacity: 0.7; stroke: #ffffff; stroke-width: 0.8; stroke-linejoin: miter"/>
   </g>
   <g id="patch_31">
    <path d="M 147.66932 81.304482 
L 150.250974 81.304482 
L 150.250974 56.603014 
L 147.66932 56.603014 
z
" clip-path="url(#pcfa9c0cfe7)" style="fill: #0072b2; opacity: 0.7; stroke: #ffffff; stroke-width: 0.8; stroke-linejoin: miter"/>
   </g>
   <g id="patch_32">
    <path d="M 150.250974 81.304482 
L 152.832628 81.304482 
L 152.832628 70.718139 
L 150.250974 70.718139 
z
" clip-path="url(#pcfa9c0cfe7)" style="fill: #0072b2; opacity: 0.7; stroke: #ffffff; stroke-width: 0.8; stroke-linejoin: miter"/>
   </g>
   <g id="patch_33">
    <path d="M 152.832628 81.304482 
L 155.414282 81.304482 
L 155.414282 70.718139 
L 152.832628 70.718139 
z
" clip-path="url(#pcfa9c0cfe7)" style="fill: #0072b2; opacity: 0.7; stroke: #ffffff; stroke-width: 0.8; stroke-linejoin: miter"/>
   </g>
   <g id="patch_34">
    <path d="M 155.414282 81.304482 
L 157.995936 81.304482 
L 157.995936 53.074232 
L 155.414282 53.074232 
z
" clip-path="url(#pcfa9c0cfe7)" style="fill: #0072b2; opacity: 0.7; stroke: #ffffff; stroke-width: 0.8; stroke-linejoin: miter"/>
   </g>
   <g id="patch_35">
    <path d="M 157.995936 81.304482 
L 160.577591 81.304482 
L 160.577591 56.603014 
L 157.995936 56.603014 
z
" clip-path="url(#pcfa9c0cfe7)" style="fill: #0072b2; opacity: 0.7; stroke: #ffffff; stroke-width: 0.8; stroke-linejoin: miter"/>
   </g>
   <g id="patch_36">
    <path d="M 160.577591 81.304482 
L 163.159245 81.304482 
L 163.159245 74.24692 
L 160.577591 74.24692 
z
" clip-path="url(#pcfa9c0cfe7)" style="fill: #0072b2; opacity: 0.7; stroke: #ffffff; stroke-width: 0.8; stroke-linejoin: miter"/>
   </g>
   <g id="patch_37">
    <path d="M 163.159245 81.304482 
L 165.740894 81.304482 
L 165.740894 74.246905 
L 163.159245 74.246905 
z
" clip-path="url(#pcfa9c0cfe7)" style="fill: #0072b2; opacity: 0.7; stroke: #ffffff; stroke-width: 0.8; stroke-linejoin: miter"/>
   </g>
   <g id="patch_38">
    <path d="M 165.740894 81.304482 
L 168.322548 81.304482 
L 168.322548 70.718139 
L 165.740894 70.718139 
z
" clip-path="url(#pcfa9c0cfe7)" style="fill: #0072b2; opacity: 0.7; stroke: #ffffff; stroke-width: 0.8; stroke-linejoin: miter"/>
   </g>
   <g id="patch_39">
    <path d="M 168.322548 81.304482 
L 170.904202 81.304482 
L 170.904202 63.660576 
L 168.322548 63.660576 
z
" clip-path="url(#pcfa9c0cfe7)" style="fill: #0072b2; opacity: 0.7; stroke: #ffffff; stroke-width: 0.8; stroke-linejoin: miter"/>
   </g>
   <g id="patch_40">
    <path d="M 170.904202 81.304482 
L 173.485856 81.304482 
L 173.485856 70.718139 
L 170.904202 70.718139 
z
" clip-path="url(#pcfa9c0cfe7)" style="fill: #0072b2; opacity: 0.7; stroke: #ffffff; stroke-width: 0.8; stroke-linejoin: miter"/>
   </g>
   <g id="patch_41">
    <path d="M 173.485856 81.304482 
L 176.06751 81.304482 
L 176.06751 70.718139 
L 173.485856 70.718139 
z
" clip-path="url(#pcfa9c0cfe7)" style="fill: #0072b2; opacity: 0.7; stroke: #ffffff; stroke-width: 0.8; stroke-linejoin: miter"/>
   </g>
   <g id="patch_42">
    <path d="M 176.06751 81.304482 
L 178.649165 81.304482 
L 178.649165 81.304482 
L 176.06751 81.304482 
z
" clip-path="url(#pcfa9c0cfe7)" style="fill: #0072b2; opacity: 0.7; stroke: #ffffff; stroke-width: 0.8; stroke-linejoin: miter"/>
   </g>
   <g id="patch_43">
    <path d="M 178.649165 81.304482 
L 181.230819 81.304482 
L 181.230819 77.775701 
L 178.649165 77.775701 
z
" clip-path="url(#pcfa9c0cfe7)" style="fill: #0072b2; opacity: 0.7; stroke: #ffffff; stroke-width: 0.8; stroke-linejoin: miter"/>
   </g>
   <g id="patch_44">
    <path d="M 181.230819 81.304482 
L 183.812473 81.304482 
L 183.812473 81.304482 
L 181.230819 81.304482 
z
" clip-path="url(#pcfa9c0cfe7)" style="fill: #0072b2; opacity: 0.7; stroke: #ffffff; stroke-width: 0.8; stroke-linejoin: miter"/>
   </g>
   <g id="patch_45">
    <path d="M 183.812473 81.304482 
L 186.394127 81.304482 
L 186.394127 74.24692 
L 183.812473 74.24692 
z
" clip-path="url(#pcfa9c0cfe7)" style="fill: #0072b2; opacity: 0.7; stroke: #ffffff; stroke-width: 0.8; stroke-linejoin: miter"/>
   </g>
   <g id="patch_46">
    <path d="M 186.394127 81.304482 
L 188.975781 81.304482 
L 188.975781 70.718139 
L 186.394127 70.718139 
z
" clip-path="url(#pcfa9c0cfe7)" style="fill: #0072b2; opacity: 0.7; stroke: #ffffff; stroke-width: 0.8; stroke-linejoin: miter"/>
   </g>
   <g id="patch_47">
    <path d="M 188.975781 81.304482 
L 191.557435 81.304482 
L 191.557435 77.775701 
L 188.975781 77.775701 
z
" clip-path="url(#pcfa9c0cfe7)" style="fill: #0072b2; opacity: 0.7; stroke: #ffffff; stroke-width: 0.8; stroke-linejoin: miter"/>
   </g>
   <g id="patch_48">
    <path d="M 191.557435 81.304482 
L 194.13909 81.304482 
L 194.13909 74.24692 
L 191.557435 74.24692 
z
" clip-path="url(#pcfa9c0cfe7)" style="fill: #0072b2; opacity: 0.7; stroke: #ffffff; stroke-width: 0.8; stroke-linejoin: miter"/>
   </g>
   <g id="patch_49">
    <path d="M 194.13909 81.304482 
L 196.720744 81.304482 
L 196.720744 77.775701 
L 194.13909 77.775701 
z
" clip-path="url(#pcfa9c0cfe7)" style="fill: #0072b2; opacity: 0.7; stroke: #ffffff; stroke-width: 0.8; stroke-linejoin: miter"/>
   </g>
   <g id="patch_50">
    <path d="M 196.720744 81.304482 
L 199.302398 81.304482 
L 199.302398 81.304482 
L 196.720744 81.304482 
z
" clip-path="url(#pcfa9c0cfe7)" style="fill: #0072b2; opacity: 0.7; stroke: #ffffff; stroke-width: 0.8; stroke-linejoin: miter"/>
   </g>
   <g id="patch_51">
    <path d="M 199.302398 81.304482 
L 201.884052 81.304482 
L 201.884052 77.775701 
L 199.302398 77.775701 
z
" clip-path="url(#pcfa9c0cfe7)" style="fill: #0072b2; opacity: 0.7; stroke: #ffffff; stroke-width: 0.8; stroke-linejoin: miter"/>
   </g>
   <g id="patch_52">
    <path d="M 201.884052 81.304482 
L 204.465706 81.304482 
L 204.465706 77.775701 
L 201.884052 77.775701 
z
" clip-path="url(#pcfa9c0cfe7)" style="fill: #0072b2; opacity: 0.7; stroke: #ffffff; stroke-width: 0.8; stroke-linejoin: miter"/>
   </g>
   <g id="line2d_8">
    <path d="M 50.662442 81.299579 
L 62.324802 81.177622 
L 80.266896 80.604642 
L 83.855315 80.329849 
L 86.546629 79.900034 
L 88.340838 79.441622 
L 90.135048 78.796958 
L 91.929257 77.920556 
L 93.723466 76.766865 
L 95.517676 75.294629 
L 97.311885 73.472207 
L 99.106094 71.283252 
L 100.900304 68.732022 
L 102.694513 65.847737 
L 105.385827 61.029694 
L 111.66556 49.402697 
L 113.459769 46.637287 
L 115.253979 44.406758 
L 116.151083 43.534469 
L 117.048188 42.842357 
L 117.945293 42.340444 
L 118.842397 42.035363 
L 119.739502 41.930049 
L 120.636607 42.023543 
L 121.533711 42.310939 
L 122.430816 42.783457 
L 123.327921 43.42866 
L 125.12213 45.171306 
L 126.916339 47.382212 
L 129.607653 51.17419 
L 133.196072 56.168928 
L 134.990282 58.311005 
L 136.784491 60.095231 
L 138.5787 61.489097 
L 140.37291 62.504148 
L 142.167119 63.188217 
L 143.961328 63.614059 
L 146.652642 63.953657 
L 152.03527 64.474987 
L 154.726585 64.968184 
L 157.417899 65.682101 
L 161.006317 66.934326 
L 165.491841 68.828028 
L 177.154202 73.999734 
L 179.845516 74.861671 
L 182.53683 75.505748 
L 186.125248 76.112928 
L 193.302086 77.241875 
L 199.581819 78.573663 
L 205.861551 79.844099 
L 210.347075 80.513085 
L 214.832598 80.944748 
L 220.215226 81.199291 
L 228.289168 81.29601 
L 229.186273 81.298412 
L 229.186273 81.298412 
" clip-path="url(#pcfa9c0cfe7)" style="fill: none; stroke: #d55e00; stroke-width: 1.5; stroke-linecap: round"/>
   </g>
   <g id="line2d_9">
    <path d="M 134.121864 81.304482 
L 134.121864 7.2 
" clip-path="url(#pcfa9c0cfe7)" style="fill: none; stroke-dasharray: 3.7,1.6; stroke-dashoffset: 0; stroke: #d55e00"/>
   </g>
   <g id="line2d_10">
    <path d="M 125.466698 81.304482 
L 125.466698 7.2 
" clip-path="url(#pcfa9c0cfe7)" style="fill: none; stroke-dasharray: 1,1.65; stroke-dashoffset: 0; stroke: #cc79a7"/>
   </g>
   <g id="patch_53">
    <path d="M 41.73625 81.304482 
L 41.73625 7.2 
" style="fill: none; stroke: #cccccc; stroke-width: 0.8; stroke-linejoin: miter; stroke-linecap: square"/>
   </g>
   <g id="patch_54">
    <path d="M 238.112465 81.304482 
L 238.112465 7.2 
" style="fill: none; stroke: #cccccc; stroke-width: 0.8; stroke-linejoin: miter; stroke-linecap: square"/>
   </g>
   <g id="patch_55">
    <path d="M 41.73625 81.304482 
L 238.112465 81.304482 
" style="fill: none; stroke: #cccccc; stroke-width: 0.8; stroke-linejoin: miter; stroke-linecap: square"/>
   </g>
   <g id="patch_56">
    <path d="M 41.73625 7.2 
L 238.112465 7.2 
" style="fill: none; stroke: #cccccc; stroke-width: 0.8; stroke-linejoin: miter; stroke-linecap: square"/>
   </g>
   <g id="legend_1">
    <g id="line2d_11">
     <path d="M 161.627621 16.060469 
L 168.627621 16.060469 
L 175.627621 16.060469 
" style="fill: none; stroke: #d55e00; stroke-width: 1.5; stroke-linecap: round"/>
    </g>
    <g id="text_10">
     <!-- KDE -->
     <g style="fill: #262626" transform="translate(181.227621 18.510469) scale(0.07 -0.07)">
      <defs>
       <path id="ArialMT-4b" d="M 469 0 
L 469 4581 
L 1075 4581 
L 1075 2309 
L 3350 4581 
L 4172 4581 
L 2250 2725 
L 4256 0 
L 3456 0 
L 1825 2319 
L 1075 1588 
L 1075 0 
L 469 0 
z
" transform="scale(0.015625)"/>
      </defs>
      <use xlink:href="#ArialMT-4b"/>
      <use xlink:href="#ArialMT-44" transform="translate(66.699219 0)"/>
      <use xlink:href="#ArialMT-45" transform="translate(138.916016 0)"/>
     </g>
    </g>
    <g id="line2d_12">
     <path d="M 161.627621 25.962188 
L 168.627621 25.962188 
L 175.627621 25.962188 
" style="fill: none; stroke-dasharray: 3.7,1.6; stroke-dashoffset: 0; stroke: #d55e00"/>
    </g>
    <g id="text_11">
     <!-- Mean: -0.2597 -->
     <g style="fill: #262626" transform="translate(181.227621 28.412188) scale(0.07 -0.07)">
      <defs>
       <path id="ArialMT-4d" d="M 475 0 
L 475 4581 
L 1388 4581 
L 2472 1338 
Q 2622 884 2691 659 
Q 2769 909 2934 1394 
L 4031 4581 
L 4847 4581 
L 4847 0 
L 4263 0 
L 4263 3834 
L 2931 0 
L 2384 0 
L 1059 3900 
L 1059 0 
L 475 0 
z
" transform="scale(0.015625)"/>
       <path id="ArialMT-3a" d="M 578 2678 
L 578 3319 
L 1219 3319 
L 1219 2678 
L 578 2678 
z
M 578 0 
L 578 641 
L 1219 641 
L 1219 0 
L 578 0 
z
" transform="scale(0.015625)"/>
       <path id="ArialMT-2d" d="M 203 1375 
L 203 1941 
L 1931 1941 
L 1931 1375 
L 203 1375 
z
" transform="scale(0.015625)"/>
       <path id="ArialMT-39" d="M 350 1059 
L 891 1109 
Q 959 728 1153 556 
Q 1347 384 1650 384 
Q 1909 384 2104 503 
Q 2300 622 2425 820 
Q 2550 1019 2634 1356 
Q 2719 1694 2719 2044 
Q 2719 2081 2716 2156 
Q 2547 1888 2255 1720 
Q 1963 1553 1622 1553 
Q 1053 1553 659 1965 
Q 266 2378 266 3053 
Q 266 3750 677 4175 
Q 1088 4600 1706 4600 
Q 2153 4600 2523 4359 
Q 2894 4119 3086 3673 
Q 3278 3228 3278 2384 
Q 3278 1506 3087 986 
Q 2897 466 2520 194 
Q 2144 -78 1638 -78 
Q 1100 -78 759 220 
Q 419 519 350 1059 
z
M 2653 3081 
Q 2653 3566 2395 3850 
Q 2138 4134 1775 4134 
Q 1400 4134 1122 3828 
Q 844 3522 844 3034 
Q 844 2597 1108 2323 
Q 1372 2050 1759 2050 
Q 2150 2050 2401 2323 
Q 2653 2597 2653 3081 
z
" transform="scale(0.015625)"/>
       <path id="ArialMT-37" d="M 303 3981 
L 303 4522 
L 3269 4522 
L 3269 4084 
Q 2831 3619 2401 2847 
Q 1972 2075 1738 1259 
Q 1569 684 1522 0 
L 944 0 
Q 953 541 1156 1306 
Q 1359 2072 1739 2783 
Q 2119 3494 2547 3981 
L 303 3981 
z
" transform="scale(0.015625)"/>
      </defs>
      <use xlink:href="#ArialMT-4d"/>
      <use xlink:href="#ArialMT-65" transform="translate(83.300781 0)"/>
      <use xlink:href="#ArialMT-61" transform="translate(138.916016 0)"/>
      <use xlink:href="#ArialMT-6e" transform="translate(194.53125 0)"/>
      <use xlink:href="#ArialMT-3a" transform="translate(250.146484 0)"/>
      <use xlink:href="#ArialMT-20" transform="translate(277.929688 0)"/>
      <use xlink:href="#ArialMT-2d" transform="translate(305.712891 0)"/>
      <use xlink:href="#ArialMT-30" transform="translate(339.013672 0)"/>
      <use xlink:href="#ArialMT-2e" transform="translate(394.628906 0)"/>
      <use xlink:href="#ArialMT-32" transform="translate(422.412109 0)"/>
      <use xlink:href="#ArialMT-35" transform="translate(478.027344 0)"/>
      <use xlink:href="#ArialMT-39" transform="translate(533.642578 0)"/>
      <use xlink:href="#ArialMT-37" transform="translate(589.257812 0)"/>
     </g>
    </g>
    <g id="line2d_13">
     <path d="M 161.627621 35.863906 
L 168.627621 35.863906 
L 175.627621 35.863906 
" style="fill: none; stroke-dasharray: 1,1.65; stroke-dashoffset: 0; stroke: #cc79a7"/>
    </g>
    <g id="text_12">
     <!-- Median: -0.6492 -->
     <g style="fill: #262626" transform="translate(181.227621 38.313906) scale(0.07 -0.07)">
      <defs>
       <path id="ArialMT-36" d="M 3184 3459 
L 2625 3416 
Q 2550 3747 2413 3897 
Q 2184 4138 1850 4138 
Q 1581 4138 1378 3988 
Q 1113 3794 959 3422 
Q 806 3050 800 2363 
Q 1003 2672 1297 2822 
Q 1591 2972 1913 2972 
Q 2475 2972 2870 2558 
Q 3266 2144 3266 1488 
Q 3266 1056 3080 686 
Q 2894 316 2569 119 
Q 2244 -78 1831 -78 
Q 1128 -78 684 439 
Q 241 956 241 2144 
Q 241 3472 731 4075 
Q 1159 4600 1884 4600 
Q 2425 4600 2770 4297 
Q 3116 3994 3184 3459 
z
M 888 1484 
Q 888 1194 1011 928 
Q 1134 663 1356 523 
Q 1578 384 1822 384 
Q 2178 384 2434 671 
Q 2691 959 2691 1453 
Q 2691 1928 2437 2201 
Q 2184 2475 1800 2475 
Q 1419 2475 1153 2201 
Q 888 1928 888 1484 
z
" transform="scale(0.015625)"/>
      </defs>
      <use xlink:href="#ArialMT-4d"/>
      <use xlink:href="#ArialMT-65" transform="translate(83.300781 0)"/>
      <use xlink:href="#ArialMT-64" transform="translate(138.916016 0)"/>
      <use xlink:href="#ArialMT-69" transform="translate(194.53125 0)"/>
      <use xlink:href="#ArialMT-61" transform="translate(216.748047 0)"/>
      <use xlink:href="#ArialMT-6e" transform="translate(272.363281 0)"/>
      <use xlink:href="#ArialMT-3a" transform="translate(327.978516 0)"/>
      <use xlink:href="#ArialMT-20" transform="translate(355.761719 0)"/>
      <use xlink:href="#ArialMT-2d" transform="translate(383.544922 0)"/>
      <use xlink:href="#ArialMT-30" transform="translate(416.845703 0)"/>
      <use xlink:href="#ArialMT-2e" transform="translate(472.460938 0)"/>
      <use xlink:href="#ArialMT-36" transform="translate(500.244141 0)"/>
      <use xlink:href="#ArialMT-34" transform="translate(555.859375 0)"/>
      <use xlink:href="#ArialMT-39" transform="translate(611.474609 0)"/>
      <use xlink:href="#ArialMT-32" transform="translate(667.089844 0)"/>
     </g>
    </g>
   </g>
  </g>
 </g>
 <defs>
  <clipPath id="pcfa9c0cfe7">
   <rect x="41.73625" y="7.2" width="196.376215" height="74.104482"/>
  </clipPath>
 </defs>
</svg>
